<?xml version="1.0" encoding="utf-8"?>
<svg version="1.1" xmlns:xlink="http://www.w3.org/1999/xlink" width="79px" height="25px" xmlns="http://www.w3.org/2000/svg">
  <defs>
    <mask fill="white" id="clip22">
      <path d="M 0 20  L 0 5  C 0 2.19999999999999  1.59449541284407 0  3.62385321100916 0  L 56.5321100917431 0  L 75.3761467889909 0  C 77.4055045871559 0  79 2.19999999999999  79 5  L 79 20  C 79 22.8  77.4055045871559 25  75.3761467889909 25  L 56.5321100917431 25  L 3.62385321100916 25  C 1.59449541284407 25  0 22.8  0 20  Z " fill-rule="evenodd" />
    </mask>
  </defs>
  <g transform="matrix(1 0 0 1 -770 -354 )">
    <path d="M 0 20  L 0 5  C 0 2.19999999999999  1.59449541284407 0  3.62385321100916 0  L 56.5321100917431 0  L 75.3761467889909 0  C 77.4055045871559 0  79 2.19999999999999  79 5  L 79 20  C 79 22.8  77.4055045871559 25  75.3761467889909 25  L 56.5321100917431 25  L 3.62385321100916 25  C 1.59449541284407 25  0 22.8  0 20  Z " fill-rule="nonzero" fill="#ffffff" stroke="none" transform="matrix(1 0 0 1 770 354 )" />
    <path d="M 0 20  L 0 5  C 0 2.19999999999999  1.59449541284407 0  3.62385321100916 0  L 56.5321100917431 0  L 75.3761467889909 0  C 77.4055045871559 0  79 2.19999999999999  79 5  L 79 20  C 79 22.8  77.4055045871559 25  75.3761467889909 25  L 56.5321100917431 25  L 3.62385321100916 25  C 1.59449541284407 25  0 22.8  0 20  Z " stroke-width="2" stroke="#797979" fill="none" transform="matrix(1 0 0 1 770 354 )" mask="url(#clip22)" />
  </g>
</svg>