<?xml version="1.0" encoding="utf-8"?>
<svg version="1.1" xmlns:xlink="http://www.w3.org/1999/xlink" width="137px" height="25px" xmlns="http://www.w3.org/2000/svg">
  <defs>
    <mask fill="white" id="clip2">
      <path d="M 0 25  L 0 0  L 67.8657407407407 0  L 86.2592592592593 0  L 137 0  L 137 25  L 119.240740740741 25  L 0 25  Z " fill-rule="evenodd" />
    </mask>
  </defs>
  <g transform="matrix(1 0 0 1 -981 -46 )">
    <path d="M 0 25  L 0 0  L 67.8657407407407 0  L 86.2592592592593 0  L 137 0  L 137 25  L 119.240740740741 25  L 0 25  Z " fill-rule="nonzero" fill="#000000" stroke="none" transform="matrix(1 0 0 1 981 46 )" />
    <path d="M 0 25  L 0 0  L 67.8657407407407 0  L 86.2592592592593 0  L 137 0  L 137 25  L 119.240740740741 25  L 0 25  Z " stroke-width="2" stroke="#00ffff" fill="none" transform="matrix(1 0 0 1 981 46 )" mask="url(#clip2)" />
  </g>
</svg>